<svg xmlns="http://www.w3.org/2000/svg" xmlns:xlink="http://www.w3.org/1999/xlink" viewBox="0 0 255.999 255.999"><defs><style>.a{fill:none;}.b{clip-path:url(#a);}.c{fill:#fa000c;}.d{fill:#fac8ca;}</style><clipPath id="a"><path class="a" d="M128,316A128,128,0,1,0,0,188,128,128,0,0,0,128,316Z" transform="translate(0 -60)"/></clipPath></defs><g transform="translate(-1944 -3745)"><g transform="translate(1944 3745)"><g class="b" transform="translate(0 0)"><rect class="c" width="255.999" height="255.999"/><path class="d" d="M185.066,286.309c14.455-2.87,21.75-21.55,23.915-32.855s-2.39-41.1,6.95-52.9,55.625-37.34,70.47-37.34,20.1,7.24,21.095,6.36-1.21-5.065-4.53-14.525-3.715-8.9-7.485-16.13a93.022,93.022,0,0,0-9.08-14.21c-2.435-3.3-2.47-3.33-5.12-6.5s-3.23-4.245-10.195-10.79-4.87-4.485-12.135-10.1-12-10.21-16.54-10.21-.97,2.395-4.7,5.38-57.03,27.245-68.075,29.325-26.775-1.18-38.21,4.935-18.065,12.245-20.625,31.035,22.33,81.58,32.06,99.07,27.74,32.335,42.195,29.465Z" transform="translate(-55.312 -73.55)"/><path class="c" d="M169.25,243.5A20.25,20.25,0,1,0,149,223.25,20.248,20.248,0,0,0,169.25,243.5Z" transform="translate(-74.5 -131.5)"/><path class="c" d="M415,196a16,16,0,1,0-16-16A16,16,0,0,0,415,196Z" transform="translate(-199.501 -112)"/><path class="c" d="M344.61,164.415l14.38-7.33L355.38,150,341,157.33Z" transform="translate(-170.501 -105)"/><path class="c" d="M281.61,196.415l14.38-7.33L292.38,182,278,189.33Z" transform="translate(-139.001 -121)"/><g transform="translate(121.009 93.72)"><g transform="translate(0 16.58)"><path class="c" d="M267.645,282.725,261.1,280.6l4.42,8.67Z" transform="translate(-251.56 -280.6)"/><path class="c" d="M255.98,289.27l-4.42-8.67-9.54,4.86,4.42,8.67Z" transform="translate(-242.02 -280.6)"/></g><g transform="translate(16.575 19.555)"><path class="c" d="M275.17,293.1l8.67-4.42L277.3,286.55" transform="translate(-275.17 -286.55)"/><path class="c" d="M280.03,304.75l8.67-4.42-4.86-9.54-8.67,4.42Z" transform="translate(-275.17 -288.67)"/></g><g transform="translate(19.555 5.53)"><path class="c" d="M287.675,276.9l-4.42-8.67-2.125,6.545Z" transform="translate(-281.13 -263.365)"/><path class="c" d="M299.33,267.17l-4.42-8.67-9.54,4.86,4.42,8.67Z" transform="translate(-283.25 -258.5)"/></g><g transform="translate(5.53)"><path class="c" d="M269.345,273.065l2.125-6.545-8.67,4.42Z" transform="translate(-257.94 -256.98)"/><path class="c" d="M257.94,261.4l8.67-4.42-4.86-9.54-8.67,4.42Z" transform="translate(-253.08 -247.44)"/></g></g><path class="c" d="M403.5,126a5.5,5.5,0,1,0-5.5-5.5A5.5,5.5,0,0,0,403.5,126Z" transform="translate(-199.001 -87.5)"/></g></g></g></svg>